<svg width="256" height="262" fill="none" xmlns="http://www.w3.org/2000/svg"><path d="m196 107 45-25s-6-13-18-13h-27l-41 30h32s7 3 9 8Z" fill="#FAFAFA"/><path d="m188 69-40 31h-7s-9 15-9 29c0 15 26 38 89 34l-39 29s-35 4-57-4c-22-9-40-20-39-41 1-20 19-40 19-40s12-9 28-18c14-9 29-17 55-20Z" fill="#FAFAFA"/><path d="m256 47-45 24-1-23s-7-19-36-19h-37l5-4s-24-2-26 0c-2 3-6 16-21 25-14 9-41 40-41 40s-10 21-10 54c1 32 14 57 33 71 19 15 19 18 146 17l-37 29H91s-27 1-44-11c-17-11-28-18-36-37s-12-27-11-57 2-41 20-60c19-18 32-27 37-34 6-6 15-15 16-22 0 0 50-35 66-40h79s43-3 38 47Z" fill="#FAFAFA"/>
  <style>
    @media (prefers-color-scheme: light) {
      path {
        fill: #000;
      }
    }
  </style>
</svg>