<svg width="129" height="128" viewBox="0 0 129 128" fill="none" xmlns="http://www.w3.org/2000/svg">
<path d="M109.817 101.234C106.763 96.6381 102.122 94.0841 97.7527 92.4346C95.5605 91.6071 93.4147 91.0041 91.5222 90.4951C89.6315 89.9893 87.98 89.5738 86.8577 89.1753C85.151 88.5788 83.1195 87.6578 81.6507 86.6293C80.9137 86.1183 80.3257 85.5808 79.979 85.1203L79.7462 84.7636C79.428 84.8708 79.1215 84.9913 78.7933 85.0868C77.929 85.3431 77.013 85.5508 76.065 85.7348C76.2845 86.3478 76.601 86.9108 76.9745 87.4013C77.6478 88.2773 78.4952 89.0043 79.4165 89.6541L65.8835 110.62L51.6572 88.5788L49.9287 89.6978L65.8835 114.417L81.16 90.7463C82.6408 91.5703 84.2033 92.2403 85.605 92.7343C85.8463 92.8198 86.1175 92.8968 86.3755 92.9773L91.144 107.669L81.4835 105.397L65.8838 118.466L50.2842 105.395L40.6237 107.67L45.7923 91.7483C47.137 91.1471 48.4688 90.4621 49.646 89.6413C50.579 88.9863 51.428 88.2511 52.093 87.3501C52.7545 86.4573 53.2402 85.3401 53.237 84.0958C53.237 82.0943 53.237 79.5921 53.237 76.1636V75.4383L52.7528 74.9006C50.1803 72.0348 46.6965 68.2328 45.489 61.4716L45.298 60.3913L44.2663 60.0228C43.6098 59.7883 43.1087 59.5488 42.6717 59.2458C42.0267 58.7903 41.4422 58.1688 40.759 56.8943C40.084 55.6281 39.3687 53.7373 38.5868 50.9921C38.2435 49.7896 38.1213 48.8583 38.1213 48.1651C38.123 47.5571 38.21 47.1401 38.3223 46.8451C41.389 50.6856 44.8592 51.3488 44.8592 51.3488C70.5853 42.2023 78.0165 26.7668 78.0165 26.7668C78.0165 26.7668 78.931 47.7328 86.406 52.6333V59.7516C86.406 59.7516 86.411 59.7783 86.4125 59.7918C85.977 60.0663 85.498 60.2893 84.907 60.5086L84.1565 60.7766L84.0175 61.5603C82.7883 68.4658 79.2023 72.3818 76.6298 75.2438L76.278 75.6358V76.1636C76.278 76.8016 76.278 77.3778 76.278 77.9541C77.2847 77.6793 78.1925 77.3411 79.0215 76.9426V76.6878C81.5102 73.9226 85.1345 69.6736 86.5465 62.7948L87.0023 62.5721C87.039 62.2338 87.0658 61.8788 87.0943 61.5303C87.5548 62.1033 88.2197 62.5823 89.0335 62.9206C88.7875 65.1281 88.4108 67.0993 87.898 68.8061C86.446 73.5761 84.1245 76.4468 80.872 78.3091C78.11 79.8818 74.5442 80.6858 70.2247 80.8951C69.6487 80.2068 68.7945 79.7613 67.8265 79.7613H63.254C61.519 79.7613 60.1102 81.1681 60.1102 82.9068C60.1102 84.6418 61.5188 86.0506 63.254 86.0506H67.8265C69.054 86.0506 70.106 85.3403 70.6235 84.3156C73.3585 84.1716 75.8942 83.7961 78.2172 83.1111C82.8585 81.7596 86.6738 79.0413 89.1357 74.6716C90.829 71.6803 91.906 67.9656 92.427 63.4266C95.147 63.2223 97.2673 61.6663 97.2673 59.7518V44.8891C97.2673 43.2411 95.693 41.8611 93.524 41.3736C99.6523 21.9501 83.9857 4.71234 67.175 3.94359C64.78 1.59209 61.323 -0.148163 56.394 0.0110869C49.4265 0.235587 44.9598 5.52309 42.8745 11.7803C36.2855 17.4983 32.857 25.8558 33.996 35.3423C34.398 38.6853 35.2137 41.3183 36.217 43.4236C35.8032 43.8038 35.4115 44.2426 35.1085 44.8121C34.616 45.7298 34.3462 46.8621 34.348 48.1651C34.3498 49.2941 34.5423 50.5636 34.9593 52.0273C36.0613 55.8661 37.0562 58.3448 38.3442 60.1638C38.9872 61.0663 39.721 61.7918 40.5182 62.3443C41.0022 62.6811 41.5047 62.9388 42.0122 63.1683C42.652 66.1296 43.702 68.5848 44.8795 70.6683C44.456 77.0261 41.4178 83.2331 33.504 81.6503C33.504 85.6413 38.3057 88.5908 40.4665 89.7181C39.093 90.1198 37.3897 90.5571 35.524 91.0981C31.459 92.2853 26.6405 93.9688 22.7147 97.3136C20.7552 98.9851 19.0332 101.089 17.8225 103.707C16.6082 106.323 15.9147 109.433 15.9147 113.078C15.9147 113.92 15.9515 114.791 16.0287 115.696C16.084 116.332 16.3252 116.846 16.6082 117.27C17.1475 118.064 17.8627 118.652 18.7587 119.256C20.328 120.295 22.502 121.31 25.2857 122.306C33.6152 125.277 47.4077 127.995 64.5 128C78.386 127.998 90.107 126.196 98.4727 123.934C102.658 122.8 106 121.557 108.415 120.316C109.624 119.691 110.602 119.073 111.378 118.396C111.766 118.055 112.106 117.696 112.393 117.269C112.674 116.846 112.917 116.331 112.972 115.695C113.049 114.79 113.086 113.916 113.086 113.072C113.091 108.212 111.847 104.291 109.817 101.234ZM109.219 115.212L109.056 115.405C108.778 115.686 108.217 116.11 107.428 116.559C104.646 118.165 99.1562 120.136 91.7868 121.637C84.4058 123.146 75.1035 124.226 64.5 124.226C50.9453 124.228 39.5125 122.458 31.5135 120.29C27.5172 119.212 24.3735 118.024 22.3117 116.961C21.2852 116.433 20.528 115.929 20.1092 115.561C19.9302 115.403 19.8297 115.284 19.7795 115.216C19.7207 114.474 19.6872 113.757 19.6872 113.077C19.6942 108.844 20.7307 105.762 22.3337 103.347C24.7287 99.7378 28.5775 97.5356 32.5973 96.0246C34.6005 95.2711 36.6235 94.6931 38.481 94.1856C40.2865 93.6916 41.9195 93.2678 43.298 92.7671L37.5365 110.509L49.7545 107.635L65.8835 121.149L82.0125 107.635L94.2305 110.509L88.7605 93.6648C89.911 93.9713 91.152 94.2896 92.4485 94.6646C96.3425 95.7786 100.64 97.3713 103.842 100.137C105.449 101.518 106.793 103.18 107.758 105.27C108.72 107.36 109.311 109.896 109.312 113.072C109.313 113.752 109.277 114.471 109.219 115.212Z" fill="#F7F7F7"/>
<path d="M109.219 115.212L109.056 115.405C108.778 115.686 108.217 116.11 107.428 116.559C104.646 118.165 99.1562 120.136 91.7868 121.637C84.4058 123.146 75.1035 124.226 64.5 124.226C50.9453 124.228 39.5125 122.458 31.5135 120.29C27.5172 119.212 24.3735 118.024 22.3117 116.961C21.2852 116.433 20.528 115.929 20.1092 115.561C19.9302 115.403 19.8297 115.284 19.7795 115.216C19.7207 114.474 19.6872 113.757 19.6872 113.077C19.6942 108.844 20.7307 105.762 22.3337 103.347C24.7287 99.7378 28.5775 97.5356 32.5973 96.0246C34.6005 95.2711 36.6235 94.6931 38.481 94.1856C40.2865 93.6916 41.9195 93.2678 43.298 92.7671L37.5365 110.509L49.7545 107.635L65.8835 121.149L82.0125 107.635L94.2305 110.509L88.7605 93.6648C89.911 93.9713 91.152 94.2896 92.4485 94.6646C96.3425 95.7786 100.64 97.3713 103.842 100.137C105.449 101.518 106.793 103.18 107.758 105.27C108.72 107.36 109.311 109.896 109.312 113.072C109.313 113.752 109.277 114.471 109.219 115.212Z" fill="#F7F7F7"/>
</svg>
