<svg width="33" height="32" viewBox="0 0 33 32" fill="none" xmlns="http://www.w3.org/2000/svg">
<path d="M30.5 16C30.5 12.287 29.025 8.72602 26.3995 6.10051C23.774 3.475 20.213 2.00001 16.5 2.00001C12.9747 1.99675 9.57792 3.32359 6.98819 5.71548C4.39847 8.10738 2.80645 11.3882 2.53014 14.9027C2.25383 18.4172 3.31358 21.9065 5.49769 24.6737C7.68181 27.4409 10.8295 29.2823 14.312 29.83V20.046H10.76V16H14.314V12.916C14.314 9.40801 16.404 7.46801 19.602 7.46801C21.134 7.46801 22.736 7.74201 22.736 7.74201V11.188H20.97C19.23 11.188 18.69 12.268 18.69 13.374V16H22.572L21.952 20.046H18.688V29.83C21.981 29.3085 24.9799 27.6292 27.1452 25.0939C29.3105 22.5587 30.5001 19.3341 30.5 16Z" fill="#1877F2"/>
<path d="M21.95 20.0461L22.57 16.0001H18.688V13.3741C18.688 12.2681 19.228 11.1881 20.968 11.1881H22.734V7.74006C22.734 7.74006 21.132 7.46606 19.6 7.46606C16.4 7.46606 14.312 9.40606 14.312 12.9141V16.0001H10.76V20.0461H14.314V29.8301C15.7637 30.0582 17.2403 30.0582 18.69 29.8301V20.0461H21.95Z" fill="white"/>
</svg>
