<svg width="33" height="32" viewBox="0 0 33 32" fill="none" xmlns="http://www.w3.org/2000/svg">
<path d="M8.95095 19.7926C9.10723 18.4987 9.6379 17.7743 10.6379 17.0317C12.0688 16.0259 13.8561 16.5948 13.8561 16.5948V13.2197C14.2907 13.2085 14.7254 13.2343 15.1551 13.2966V17.6401C15.1551 17.6401 13.3683 17.0712 11.9375 18.0775C10.938 18.8196 10.4062 19.5446 10.2505 20.8385C10.2456 21.5411 10.3775 22.4595 10.9847 23.2536C10.8345 23.1766 10.6815 23.0889 10.5256 22.9905C9.18807 22.0923 8.94444 20.7449 8.95095 19.7926ZM22.5352 6.97898C21.5509 5.90039 21.1786 4.81139 21.0441 4.04639H22.2823C22.2823 4.04639 22.0354 6.05224 23.8347 8.02482L23.8597 8.05134C23.3747 7.7463 22.93 7.38624 22.5352 6.97898ZM28.5 10.0369V14.293C28.5 14.293 26.92 14.2312 25.7507 13.9337C24.1179 13.5176 23.0685 12.8795 23.0685 12.8795C23.0685 12.8795 22.3436 12.4245 22.285 12.3928V21.1817C22.285 21.6711 22.151 22.8932 21.7424 23.9125C21.209 25.246 20.3859 26.1212 20.2345 26.3001C20.2345 26.3001 19.2334 27.4832 17.4672 28.28C15.8752 28.9987 14.4774 28.9805 14.0596 28.9987C14.0596 28.9987 11.6434 29.0944 9.46915 27.6814C8.99898 27.3699 8.56011 27.0172 8.1582 26.6277L8.16906 26.6355C10.3438 28.0485 12.7595 27.9528 12.7595 27.9528C13.1779 27.9346 14.5756 27.9528 16.1671 27.2341C17.9317 26.4374 18.9344 25.2543 18.9344 25.2543C19.0842 25.0754 19.9111 24.2001 20.4423 22.8662C20.8498 21.8474 20.9849 20.6247 20.9849 20.1354V11.3475C21.0435 11.3797 21.7679 11.8347 21.7679 11.8347C21.7679 11.8347 22.8179 12.4734 24.4506 12.8889C25.6204 13.1864 27.2 13.2483 27.2 13.2483V9.91314C27.7404 10.0343 28.2011 10.0671 28.5 10.0369Z" fill="#EE1D52"/>
<path d="M27.2009 9.91314V13.2472C27.2009 13.2472 25.6213 13.1853 24.4515 12.8879C22.8188 12.4718 21.7688 11.8337 21.7688 11.8337C21.7688 11.8337 21.0444 11.3787 20.9858 11.3464V20.1364C20.9858 20.6258 20.8518 21.8484 20.4432 22.8672C19.9098 24.2012 19.0867 25.0764 18.9353 25.2553C18.9353 25.2553 17.9337 26.4384 16.168 27.2352C14.5765 27.9539 13.1788 27.9357 12.7604 27.9539C12.7604 27.9539 10.3447 28.0496 8.16995 26.6366L8.1591 26.6288C7.92949 26.4064 7.71336 26.1717 7.51177 25.9257C6.81777 25.0795 6.39237 24.0789 6.28547 23.7934V23.7898C6.11347 23.2937 5.75209 22.1022 5.80147 20.9482C5.88883 18.9122 6.60507 17.6625 6.79444 17.3494C7.29597 16.4957 7.94828 15.7318 8.72233 15.0919C9.40538 14.5396 10.1796 14.1002 11.0132 13.7917C11.9144 13.4295 12.8794 13.2353 13.8565 13.2197V16.5948C13.8565 16.5948 12.0691 16.028 10.6388 17.0317C9.63879 17.7743 9.10812 18.4987 8.95185 19.7926C8.94534 20.7449 9.18897 22.0923 10.5254 22.991C10.6813 23.0898 10.8343 23.1775 10.9845 23.2541C11.2179 23.5576 11.5021 23.8221 11.8255 24.0368C13.131 24.8632 14.2249 24.9209 15.6238 24.3842C16.5565 24.0254 17.2586 23.2167 17.5842 22.3206C17.7888 21.7611 17.7861 21.1978 17.7861 20.6154V4.04639H21.0417C21.1763 4.81139 21.5485 5.90039 22.5328 6.97898C22.9276 7.38624 23.3724 7.7463 23.8573 8.05134C24.0006 8.19955 24.7331 8.93231 25.6734 9.38216C26.1596 9.61469 26.6722 9.79285 27.2009 9.91314Z" fill="black"/>
<path d="M4.98926 22.7568V22.7594L5.07004 22.9784C5.06076 22.9529 5.03074 22.8754 4.98926 22.7568Z" fill="#69C9D0"/>
<path d="M11.0128 13.7916C10.1792 14.1002 9.40498 14.5396 8.72192 15.0918C7.94763 15.7332 7.29548 16.4987 6.79458 17.354C6.60521 17.6661 5.88897 18.9168 5.80161 20.9528C5.75223 22.1068 6.11361 23.2983 6.28561 23.7944V23.798C6.39413 24.081 6.81791 25.0815 7.51191 25.9303C7.7135 26.1763 7.92963 26.4111 8.15924 26.6334C7.42357 26.1457 6.76746 25.5562 6.21236 24.8839C5.52433 24.0451 5.10001 23.0549 4.98932 22.7626C4.98919 22.7605 4.98919 22.7584 4.98932 22.7564V22.7527C4.81677 22.2571 4.45431 21.0651 4.50477 19.9096C4.59213 17.8736 5.30838 16.6239 5.49775 16.3108C5.9985 15.4553 6.65067 14.6898 7.42509 14.0486C8.108 13.4961 8.88225 13.0567 9.71598 12.7484C10.236 12.5416 10.7778 12.3891 11.3319 12.2934C12.1669 12.1537 13.0198 12.1415 13.8588 12.2575V13.2196C12.8808 13.2349 11.9148 13.4291 11.0128 13.7916Z" fill="#69C9D0"/>
<path d="M21.0438 4.04635H17.7881V20.6159C17.7881 21.1983 17.7881 21.76 17.5863 22.3211C17.2575 23.2167 16.558 24.0253 15.6258 24.3842C14.2265 24.923 13.1326 24.8632 11.8276 24.0368C11.5036 23.823 11.2187 23.5594 10.9844 23.2567C12.0962 23.8251 13.0913 23.8152 14.3241 23.341C15.2558 22.9821 15.9563 22.1734 16.284 21.2774C16.4891 20.7178 16.4864 20.1546 16.4864 19.5726V3H20.9819C20.9819 3 20.9315 3.41188 21.0438 4.04635ZM27.2002 8.99104V9.9131C26.6725 9.79263 26.1609 9.61447 25.6755 9.38213C24.7352 8.93228 24.0026 8.19952 23.8594 8.0513C24.0256 8.1559 24.1981 8.25106 24.3759 8.33629C25.5192 8.88339 26.6451 9.04669 27.2002 8.99104Z" fill="#69C9D0"/>
</svg>
