<svg width="26" height="26" viewBox="0 0 26 26" fill="none" xmlns="http://www.w3.org/2000/svg">
<path d="M0.769165 15.4616C0.769165 14.1021 1.87122 13 3.2307 13H4.46147C5.82093 13 6.92301 14.1021 6.92301 15.4616V22.8461C6.92301 24.2056 5.82093 25.3076 4.46147 25.3076H3.2307C1.87122 25.3076 0.769165 24.2056 0.769165 22.8461V15.4616Z" fill="#F7F7F7"/>
<path d="M9.92297 9.30773C9.92297 7.94825 11.025 6.84619 12.3845 6.84619H13.6153C14.9747 6.84619 16.0768 7.94825 16.0768 9.30773V22.8461C16.0768 24.2056 14.9747 25.3077 13.6153 25.3077H12.3845C11.025 25.3077 9.92297 24.2056 9.92297 22.8461V9.30773Z" fill="#8B959C"/>
<path d="M19.0769 3.15389C19.0769 1.79441 20.179 0.692352 21.5385 0.692352H22.7692C24.1287 0.692352 25.2308 1.79441 25.2308 3.15389V22.8461C25.2308 24.2056 24.1287 25.3077 22.7692 25.3077H21.5385C20.179 25.3077 19.0769 24.2056 19.0769 22.8461V3.15389Z" fill="#8B959C"/>
</svg>
