<svg width="121" height="64" viewBox="0 0 121 64" fill="none" xmlns="http://www.w3.org/2000/svg">
<g clip-path="url(#clip0_20_2)">
<path d="M0.737743 60.3912C2.04436 59.4423 3.31787 58.4401 4.67525 57.5712C5.14316 57.2712 5.81633 57.1979 6.39681 57.1934C15.4394 57.1445 24.4842 57.1646 33.5268 57.0868C53.0532 56.9179 72.5796 56.6179 92.1082 56.549C98.2131 56.5268 104.32 57.0779 110.427 57.3712C110.71 57.3846 110.988 57.4645 111.608 57.5734C109.838 58.8223 108.326 59.8957 106.801 60.949C106.675 61.0357 106.468 61.0201 106.298 61.029C94.7965 61.5979 83.3305 62.7245 71.7828 62.5334C66.6203 62.4468 61.4424 63.3468 56.2712 63.7934C55.5318 63.8579 54.7924 63.9512 54.053 63.9512C37.4047 63.9623 20.7563 63.9601 4.11023 63.9623C3.8542 63.9623 3.59817 63.9623 2.97135 63.9623C4.50089 62.8112 5.76336 61.8601 7.2951 60.7068C4.93128 60.7068 2.88527 60.7068 0.839271 60.7068C0.80175 60.6045 0.77085 60.4979 0.737743 60.3912ZM61.8375 60.3445C61.8574 60.2779 64.3161 60.4112 64.336 60.3445C54.1435 59.8401 38.9695 59.5801 26.3955 60.3646C26.3955 60.4312 31.302 60.2801 31.302 60.3445C42.3001 61.0579 51.6605 60.3445 61.8375 60.3445Z" fill="#FAFAFA"/>
<path d="M44.26 23.0577L53.9537 17.6177C53.9537 17.6177 52.6294 14.8444 50.1398 14.791C47.6501 14.7377 44.26 14.791 44.26 14.791L35.3609 21.2977L42.353 21.351C42.353 21.351 43.8892 21.9377 44.26 23.0577Z" fill="#FAFAFA"/>
<path d="M42.5649 14.7666L33.9307 21.4577H32.3415C32.3415 21.4577 30.4346 24.7644 30.4875 27.8577C30.5405 30.951 36.1025 36.071 49.6101 35.1644L41.2406 41.351C41.2406 41.351 33.6658 42.151 29.0044 40.391C24.3429 38.631 20.4231 36.1244 20.635 31.6977C20.8468 27.271 24.7667 23.0577 24.7667 23.0577C24.7667 23.0577 27.274 21.1399 30.7259 19.0844C33.6636 17.3355 37.0626 15.4666 42.5649 14.7666Z" fill="#FAFAFA"/>
<path d="M57.079 10.2043L47.5972 15.271L47.3853 10.4176C47.3853 10.4176 45.7961 6.31095 39.4926 6.31095C33.1891 6.31095 31.494 6.31095 31.494 6.31095L32.6064 5.45762C32.6064 5.45762 27.5741 4.92428 27.0974 5.45762C26.6207 5.99095 25.6672 8.76429 22.5949 10.7376C19.5226 12.711 13.7487 19.3243 13.7487 19.3243C13.7487 19.3243 11.471 24.0176 11.6299 31.0043C11.7888 37.991 14.5433 43.2176 18.6221 46.3643C22.7008 49.511 22.8068 50.2043 50.0338 49.9376L42.1412 56.231H21.5884C21.5884 56.231 15.9205 56.3376 12.2126 53.8843C8.50461 51.431 6.27983 49.9376 4.47881 45.8843C2.6778 41.831 1.93621 40.0176 2.14809 33.6176C2.35998 27.2176 2.46592 24.8176 6.43874 20.7643C10.4116 16.711 13.272 14.8443 14.4373 13.4576C15.6027 12.071 17.6156 10.0443 17.8805 8.55095C17.8805 8.55095 28.6336 0.977619 32.0237 0.0176188H48.9214C48.9214 0.0176188 58.2443 -0.729049 57.079 10.2043Z" fill="#FAFAFA"/>
<path d="M0.810577 60.4844L5.28 57.1044C5.28 57.1044 99.0584 55.5644 111.533 57.4844L106.845 60.9244C106.845 60.9244 63.6209 59.6444 50.1927 59.6444C36.7646 59.6444 0.810577 60.4844 0.810577 60.4844Z" fill="#FAFAFA"/>
<path d="M53.8323 34.791H52.7244L55.9289 26.0637H57.0198L60.2244 34.791H59.1164L56.5085 27.4444H56.4403L53.8323 34.791ZM54.2414 31.3819H58.7073V32.3194H54.2414V31.3819ZM56.0142 25.1774L57.0539 23.2001H58.2301L56.9005 25.1774H56.0142ZM61.5838 34.791V26.0637H64.5326C65.2173 26.0637 65.777 26.1873 66.2116 26.4345C66.6491 26.6788 66.973 27.0098 67.1832 27.4274C67.3934 27.845 67.4985 28.3109 67.4985 28.8251C67.4985 29.3393 67.3934 29.8066 67.1832 30.2271C66.9758 30.6475 66.6548 30.9828 66.2201 31.2328C65.7855 31.4799 65.2287 31.6035 64.5497 31.6035H62.436V30.666H64.5156C64.9843 30.666 65.3608 30.585 65.6448 30.4231C65.9289 30.2612 66.1349 30.0424 66.2627 29.7669C66.3934 29.4885 66.4588 29.1745 66.4588 28.8251C66.4588 28.4757 66.3934 28.1632 66.2627 27.8876C66.1349 27.612 65.9275 27.3961 65.6406 27.2399C65.3537 27.0808 64.973 27.0012 64.4985 27.0012H62.6406V34.791H61.5838ZM73.9737 28.2456C73.9225 27.8137 73.7152 27.4785 73.3515 27.2399C72.9879 27.0012 72.5419 26.8819 72.0135 26.8819C71.6271 26.8819 71.289 26.9444 70.9993 27.0694C70.7123 27.1944 70.4879 27.3663 70.326 27.585C70.1669 27.8038 70.0873 28.0524 70.0873 28.3308C70.0873 28.5637 70.1427 28.764 70.2535 28.9316C70.3671 29.0964 70.512 29.2342 70.6882 29.345C70.8643 29.4529 71.049 29.5424 71.2421 29.6135C71.4353 29.6816 71.6129 29.737 71.7748 29.7797L72.6612 30.0183C72.8885 30.0779 73.1413 30.1603 73.4197 30.2654C73.701 30.3706 73.9694 30.514 74.2251 30.6958C74.4836 30.8748 74.6967 31.1049 74.8643 31.3862C75.0319 31.6674 75.1157 32.0126 75.1157 32.4217C75.1157 32.8933 74.9922 33.3194 74.745 33.7001C74.5007 34.0808 74.1427 34.3833 73.6711 34.6078C73.2024 34.8322 72.6328 34.9444 71.9623 34.9444C71.3373 34.9444 70.7961 34.8436 70.3387 34.6419C69.8842 34.4402 69.5262 34.1589 69.2649 33.7981C69.0064 33.4373 68.86 33.0183 68.826 32.541H69.9169C69.9453 32.8706 70.0561 33.1433 70.2493 33.3592C70.4453 33.5723 70.6924 33.7314 70.9907 33.8365C71.2919 33.9387 71.6157 33.9899 71.9623 33.9899C72.3657 33.9899 72.7279 33.9245 73.049 33.7939C73.37 33.6603 73.6243 33.4757 73.8118 33.2399C73.9993 33.0012 74.093 32.7228 74.093 32.4047C74.093 32.1149 74.012 31.8791 73.8501 31.6973C73.6882 31.5154 73.4751 31.3677 73.2109 31.2541C72.9467 31.1404 72.6612 31.041 72.3544 30.9558L71.2805 30.649C70.5987 30.4529 70.0589 30.1731 69.6612 29.8095C69.2635 29.4458 69.0646 28.97 69.0646 28.3819C69.0646 27.8933 69.1967 27.4672 69.4609 27.1035C69.7279 26.737 70.0859 26.4529 70.5348 26.2512C70.9865 26.0467 71.4907 25.9444 72.0475 25.9444C72.61 25.9444 73.11 26.0453 73.5475 26.247C73.985 26.4458 74.3316 26.7186 74.5873 27.0652C74.8458 27.4118 74.9822 27.8052 74.9964 28.2456H73.9737ZM82.5806 26.0637H83.6374V31.8422C83.6374 32.4387 83.4968 32.9714 83.2155 33.4402C82.9371 33.9061 82.5436 34.274 82.0351 34.5439C81.5266 34.8109 80.93 34.9444 80.2453 34.9444C79.5607 34.9444 78.9641 34.8109 78.4556 34.5439C77.9471 34.274 77.5522 33.9061 77.2709 33.4402C76.9925 32.9714 76.8533 32.4387 76.8533 31.8422V26.0637H77.9101V31.7569C77.9101 32.1831 78.0039 32.5623 78.1914 32.8947C78.3789 33.2243 78.6459 33.4842 78.9925 33.6745C79.3419 33.862 79.7596 33.9558 80.2453 33.9558C80.7311 33.9558 81.1488 33.862 81.4982 33.6745C81.8476 33.4842 82.1147 33.2243 82.2993 32.8947C82.4868 32.5623 82.5806 32.1831 82.5806 31.7569V26.0637ZM85.7478 34.791V26.0637H86.8046V33.8535H90.8615V34.791H85.7478ZM93.4066 34.791H92.2986L95.5032 26.0637H96.5941L99.7986 34.791H98.6907L96.0827 27.4444H96.0145L93.4066 34.791ZM93.8157 31.3819H98.2816V32.3194H93.8157V31.3819Z" fill="#FAFAFA"/>
<path d="M56.3968 46.8685C55.9764 46.8685 55.6137 46.7757 55.3088 46.5901C55.0057 46.4026 54.7718 46.1412 54.6071 45.806C54.4442 45.4689 54.3627 45.0768 54.3627 44.6299C54.3627 44.1829 54.4442 43.789 54.6071 43.448C54.7718 43.1052 55.001 42.8382 55.2946 42.6469C55.59 42.4537 55.9347 42.3571 56.3286 42.3571C56.5559 42.3571 56.7804 42.395 57.0019 42.4708C57.2235 42.5465 57.4252 42.6696 57.6071 42.8401C57.7889 43.0086 57.9338 43.2321 58.0417 43.5105C58.1497 43.789 58.2036 44.1318 58.2036 44.539V44.823H54.84V44.2435H57.5218C57.5218 43.9973 57.4726 43.7776 57.3741 43.5844C57.2775 43.3912 57.1393 43.2388 56.9593 43.127C56.7813 43.0153 56.5711 42.9594 56.3286 42.9594C56.0616 42.9594 55.8305 43.0257 55.6355 43.1583C55.4423 43.289 55.2936 43.4594 55.1894 43.6696C55.0853 43.8799 55.0332 44.1052 55.0332 44.3458V44.7321C55.0332 45.0617 55.09 45.341 55.2036 45.5702C55.3192 45.7975 55.4792 45.9708 55.6838 46.0901C55.8883 46.2075 56.126 46.2662 56.3968 46.2662C56.573 46.2662 56.7321 46.2416 56.8741 46.1924C57.018 46.1412 57.1421 46.0655 57.2463 45.9651C57.3504 45.8628 57.4309 45.7359 57.4877 45.5844L58.1355 45.7662C58.0673 45.9859 57.9527 46.1791 57.7917 46.3458C57.6307 46.5105 57.4319 46.6393 57.1951 46.7321C56.9584 46.823 56.6923 46.8685 56.3968 46.8685ZM59.894 40.9594V46.7776H59.2235V40.9594H59.894ZM62.9515 46.8685C62.5311 46.8685 62.1684 46.7757 61.8634 46.5901C61.5604 46.4026 61.3265 46.1412 61.1617 45.806C60.9989 45.4689 60.9174 45.0768 60.9174 44.6299C60.9174 44.1829 60.9989 43.789 61.1617 43.448C61.3265 43.1052 61.5557 42.8382 61.8492 42.6469C62.1447 42.4537 62.4894 42.3571 62.8833 42.3571C63.1106 42.3571 63.335 42.395 63.5566 42.4708C63.7782 42.5465 63.9799 42.6696 64.1617 42.8401C64.3436 43.0086 64.4884 43.2321 64.5964 43.5105C64.7044 43.789 64.7583 44.1318 64.7583 44.539V44.823H61.3947V44.2435H64.0765C64.0765 43.9973 64.0273 43.7776 63.9288 43.5844C63.8322 43.3912 63.6939 43.2388 63.514 43.127C63.336 43.0153 63.1258 42.9594 62.8833 42.9594C62.6163 42.9594 62.3852 43.0257 62.1902 43.1583C61.997 43.289 61.8483 43.4594 61.7441 43.6696C61.64 43.8799 61.5879 44.1052 61.5879 44.3458V44.7321C61.5879 45.0617 61.6447 45.341 61.7583 45.5702C61.8739 45.7975 62.0339 45.9708 62.2384 46.0901C62.443 46.2075 62.6807 46.2662 62.9515 46.2662C63.1277 46.2662 63.2867 46.2416 63.4288 46.1924C63.5727 46.1412 63.6968 46.0655 63.8009 45.9651C63.9051 45.8628 63.9856 45.7359 64.0424 45.5844L64.6902 45.7662C64.622 45.9859 64.5074 46.1791 64.3464 46.3458C64.1854 46.5105 63.9866 46.6393 63.7498 46.7321C63.5131 46.823 63.247 46.8685 62.9515 46.8685ZM67.5509 46.8685C67.1419 46.8685 66.7896 46.7719 66.4941 46.5787C66.1987 46.3855 65.9714 46.1194 65.8123 45.7804C65.6532 45.4414 65.5737 45.0541 65.5737 44.6185C65.5737 44.1753 65.6551 43.7842 65.818 43.4452C65.9828 43.1043 66.2119 42.8382 66.5055 42.6469C66.8009 42.4537 67.1456 42.3571 67.5396 42.3571C67.8464 42.3571 68.1229 42.414 68.3691 42.5276C68.6153 42.6412 68.817 42.8003 68.9742 43.0049C69.1314 43.2094 69.229 43.448 69.2669 43.7208H68.5964C68.5453 43.5219 68.4316 43.3458 68.2555 43.1924C68.0813 43.0371 67.8464 42.9594 67.5509 42.9594C67.2896 42.9594 67.0604 43.0276 66.8634 43.164C66.6684 43.2984 66.5159 43.4888 66.4061 43.735C66.2981 43.9793 66.2441 44.2662 66.2441 44.5958C66.2441 44.9329 66.2972 45.2265 66.4032 45.4765C66.5112 45.7265 66.6627 45.9206 66.8578 46.0588C67.0547 46.1971 67.2858 46.2662 67.5509 46.2662C67.7252 46.2662 67.8833 46.2359 68.0254 46.1753C68.1674 46.1147 68.2877 46.0276 68.3862 45.914C68.4847 45.8003 68.5547 45.664 68.5964 45.5049H69.2669C69.229 45.7624 69.1352 45.9944 68.9856 46.2009C68.8379 46.4054 68.6419 46.5683 68.3975 46.6895C68.1551 46.8088 67.8729 46.8685 67.5509 46.8685ZM72.1447 42.414V42.9821H69.8833V42.414H72.1447ZM70.5424 41.3685H71.2129V45.5276C71.2129 45.717 71.2403 45.859 71.2953 45.9537C71.3521 46.0465 71.4241 46.109 71.5112 46.1412C71.6002 46.1715 71.6939 46.1867 71.7924 46.1867C71.8663 46.1867 71.9269 46.1829 71.9742 46.1753C72.0216 46.1658 72.0595 46.1583 72.0879 46.1526L72.2242 46.7549C72.1788 46.7719 72.1153 46.789 72.0339 46.806C71.9525 46.8249 71.8492 46.8344 71.7242 46.8344C71.5349 46.8344 71.3492 46.7937 71.1674 46.7122C70.9875 46.6308 70.8379 46.5068 70.7186 46.3401C70.6011 46.1734 70.5424 45.9632 70.5424 45.7094V41.3685ZM73.1532 46.7776V42.414H73.8009V43.073H73.8464C73.9259 42.8571 74.0699 42.6819 74.2782 42.5475C74.4866 42.413 74.7214 42.3458 74.9828 42.3458C75.032 42.3458 75.0936 42.3467 75.1674 42.3486C75.2413 42.3505 75.2972 42.3533 75.335 42.3571V43.039C75.3123 43.0333 75.2602 43.0247 75.1788 43.0134C75.0992 43.0001 75.015 42.9935 74.9259 42.9935C74.7138 42.9935 74.5244 43.038 74.3578 43.127C74.193 43.2141 74.0623 43.3354 73.9657 43.4907C73.871 43.6441 73.8237 43.8193 73.8237 44.0162V46.7776H73.1532ZM77.7697 46.8685C77.3758 46.8685 77.0301 46.7747 76.7328 46.5872C76.4373 46.3997 76.2063 46.1374 76.0396 45.8003C75.8748 45.4632 75.7924 45.0693 75.7924 44.6185C75.7924 44.164 75.8748 43.7672 76.0396 43.4282C76.2063 43.0891 76.4373 42.8259 76.7328 42.6384C77.0301 42.4509 77.3758 42.3571 77.7697 42.3571C78.1636 42.3571 78.5083 42.4509 78.8038 42.6384C79.1011 42.8259 79.3322 43.0891 79.497 43.4282C79.6636 43.7672 79.747 44.164 79.747 44.6185C79.747 45.0693 79.6636 45.4632 79.497 45.8003C79.3322 46.1374 79.1011 46.3997 78.8038 46.5872C78.5083 46.7747 78.1636 46.8685 77.7697 46.8685ZM77.7697 46.2662C78.0689 46.2662 78.3152 46.1895 78.5083 46.0361C78.7015 45.8827 78.8445 45.681 78.9373 45.431C79.0301 45.181 79.0765 44.9102 79.0765 44.6185C79.0765 44.3268 79.0301 44.055 78.9373 43.8032C78.8445 43.5513 78.7015 43.3477 78.5083 43.1924C78.3152 43.0371 78.0689 42.9594 77.7697 42.9594C77.4705 42.9594 77.2242 43.0371 77.0311 43.1924C76.8379 43.3477 76.6949 43.5513 76.6021 43.8032C76.5093 44.055 76.4629 44.3268 76.4629 44.6185C76.4629 44.9102 76.5093 45.181 76.6021 45.431C76.6949 45.681 76.8379 45.8827 77.0311 46.0361C77.2242 46.1895 77.4705 46.2662 77.7697 46.2662ZM77.4629 41.823L78.1561 40.5049H78.9402L78.0538 41.823H77.4629ZM81.4409 44.1526V46.7776H80.7704V42.414H81.4181V43.0958H81.475C81.5772 42.8742 81.7325 42.6961 81.9409 42.5617C82.1492 42.4253 82.4181 42.3571 82.7477 42.3571C83.0431 42.3571 83.3017 42.4177 83.5233 42.539C83.7448 42.6583 83.9172 42.8401 84.0403 43.0844C84.1634 43.3268 84.225 43.6336 84.225 44.0049V46.7776H83.5545V44.0503C83.5545 43.7075 83.4655 43.4405 83.2875 43.2492C83.1094 43.056 82.8651 42.9594 82.5545 42.9594C82.3405 42.9594 82.1492 43.0058 81.9806 43.0986C81.814 43.1914 81.6823 43.3268 81.5857 43.5049C81.4892 43.6829 81.4409 43.8988 81.4409 44.1526ZM85.4501 46.7776V42.414H86.1206V46.7776H85.4501ZM85.791 41.6867C85.6603 41.6867 85.5476 41.6422 85.4529 41.5532C85.3601 41.4641 85.3137 41.3571 85.3137 41.2321C85.3137 41.1071 85.3601 41.0001 85.4529 40.9111C85.5476 40.8221 85.6603 40.7776 85.791 40.7776C85.9217 40.7776 86.0334 40.8221 86.1262 40.9111C86.2209 41.0001 86.2683 41.1071 86.2683 41.2321C86.2683 41.3571 86.2209 41.4641 86.1262 41.5532C86.0334 41.6422 85.9217 41.6867 85.791 41.6867ZM89.1213 46.8685C88.7122 46.8685 88.3599 46.7719 88.0644 46.5787C87.769 46.3855 87.5417 46.1194 87.3826 45.7804C87.2235 45.4414 87.144 45.0541 87.144 44.6185C87.144 44.1753 87.2254 43.7842 87.3883 43.4452C87.5531 43.1043 87.7822 42.8382 88.0758 42.6469C88.3713 42.4537 88.716 42.3571 89.1099 42.3571C89.4167 42.3571 89.6932 42.414 89.9394 42.5276C90.1857 42.6412 90.3874 42.8003 90.5446 43.0049C90.7018 43.2094 90.7993 43.448 90.8372 43.7208H90.1667C90.1156 43.5219 90.0019 43.3458 89.8258 43.1924C89.6516 43.0371 89.4167 42.9594 89.1213 42.9594C88.8599 42.9594 88.6307 43.0276 88.4338 43.164C88.2387 43.2984 88.0862 43.4888 87.9764 43.735C87.8684 43.9793 87.8144 44.2662 87.8144 44.5958C87.8144 44.9329 87.8675 45.2265 87.9735 45.4765C88.0815 45.7265 88.233 45.9206 88.4281 46.0588C88.625 46.1971 88.8561 46.2662 89.1213 46.2662C89.2955 46.2662 89.4536 46.2359 89.5957 46.1753C89.7377 46.1147 89.858 46.0276 89.9565 45.914C90.055 45.8003 90.125 45.664 90.1667 45.5049H90.8372C90.7993 45.7624 90.7055 45.9944 90.5559 46.2009C90.4082 46.4054 90.2122 46.5683 89.9679 46.6895C89.7254 46.8088 89.4432 46.8685 89.1213 46.8685ZM93.1014 46.8799C92.8249 46.8799 92.5739 46.8278 92.3485 46.7236C92.1232 46.6176 91.9442 46.4651 91.8116 46.2662C91.679 46.0655 91.6127 45.823 91.6127 45.539C91.6127 45.289 91.662 45.0863 91.7605 44.931C91.859 44.7738 91.9906 44.6507 92.1554 44.5617C92.3201 44.4727 92.5019 44.4064 92.7008 44.3628C92.9016 44.3174 93.1033 44.2814 93.3059 44.2549C93.5711 44.2208 93.786 44.1952 93.9508 44.1782C94.1175 44.1592 94.2387 44.128 94.3144 44.0844C94.3921 44.0408 94.4309 43.9651 94.4309 43.8571V43.8344C94.4309 43.5541 94.3542 43.3363 94.2008 43.181C94.0493 43.0257 93.8192 42.948 93.5105 42.948C93.1904 42.948 92.9394 43.0181 92.7576 43.1583C92.5758 43.2984 92.448 43.448 92.3741 43.6071L91.7377 43.3799C91.8514 43.1147 92.0029 42.9083 92.1923 42.7605C92.3836 42.6109 92.5919 42.5068 92.8173 42.448C93.0446 42.3874 93.268 42.3571 93.4877 42.3571C93.6279 42.3571 93.7889 42.3742 93.9707 42.4083C94.1544 42.4405 94.3315 42.5077 94.5019 42.61C94.6743 42.7122 94.8173 42.8666 94.9309 43.073C95.0446 43.2795 95.1014 43.556 95.1014 43.9026V46.7776H94.4309V46.1867H94.3968C94.3514 46.2814 94.2756 46.3827 94.1696 46.4907C94.0635 46.5986 93.9224 46.6905 93.7463 46.7662C93.5701 46.842 93.3552 46.8799 93.1014 46.8799ZM93.2036 46.2776C93.4688 46.2776 93.6923 46.2255 93.8741 46.1213C94.0578 46.0172 94.1961 45.8827 94.2889 45.7179C94.3836 45.5532 94.4309 45.3799 94.4309 45.198V44.5844C94.4025 44.6185 94.34 44.6497 94.2434 44.6782C94.1487 44.7047 94.0389 44.7283 93.9139 44.7492C93.7908 44.7681 93.6705 44.7852 93.5531 44.8003C93.4375 44.8136 93.3438 44.8249 93.2718 44.8344C93.0976 44.8571 92.9347 44.8941 92.7832 44.9452C92.6336 44.9944 92.5124 45.0693 92.4196 45.1696C92.3286 45.2681 92.2832 45.4026 92.2832 45.573C92.2832 45.806 92.3694 45.9821 92.5417 46.1015C92.716 46.2189 92.9366 46.2776 93.2036 46.2776Z" fill="#FAFAFA"/>
</g>
<defs>
<clipPath id="clip0_20_2">
<rect width="119.864" height="64" fill="white" transform="translate(0.567795)"/>
</clipPath>
</defs>
</svg>
