<svg width="60" height="32" viewBox="0 0 60 32" fill="none" xmlns="http://www.w3.org/2000/svg">
<g clip-path="url(#clip0_3_26)">
<path d="M0.0849762 30.1955C0.738284 29.7211 1.37504 29.22 2.05373 28.7855C2.28768 28.6355 2.62427 28.5989 2.91451 28.5967C7.4358 28.5722 11.9582 28.5822 16.4795 28.5433C26.2427 28.4589 36.0059 28.3089 45.7702 28.2744C48.8227 28.2633 51.8762 28.5389 54.9298 28.6855C55.071 28.6922 55.2101 28.7322 55.5202 28.7867C54.6351 29.4111 53.8792 29.9478 53.1166 30.4744C53.0537 30.5178 52.95 30.51 52.865 30.5144C47.1143 30.7989 41.3813 31.3622 35.6075 31.2667C33.0263 31.2233 30.4373 31.6733 27.8517 31.8967C27.482 31.9289 27.1123 31.9755 26.7426 31.9755C18.4184 31.9811 10.0943 31.98 1.77122 31.9811C1.6432 31.9811 1.51519 31.9811 1.20178 31.9811C1.96655 31.4055 2.59779 30.93 3.36366 30.3533C2.18174 30.3533 1.15874 30.3533 0.13574 30.3533C0.116979 30.3022 0.10153 30.2489 0.0849762 30.1955ZM30.6349 30.1722C30.6448 30.1389 31.8742 30.2055 31.8841 30.1722C26.7878 29.92 19.2009 29.79 12.9139 30.1822C12.9139 30.2155 15.3671 30.14 15.3671 30.1722C20.8661 30.5289 25.5463 30.1722 30.6349 30.1722Z" fill="#FAFAFA"/>
<path d="M21.8461 11.5289L26.6929 8.80888C26.6929 8.80888 26.0308 7.42222 24.786 7.39555C23.5412 7.36888 21.8461 7.39555 21.8461 7.39555L17.3965 10.6489L20.8926 10.6755C20.8926 10.6755 21.6607 10.9689 21.8461 11.5289Z" fill="#FAFAFA"/>
<path d="M20.9986 7.38333L16.6814 10.7289H15.8869C15.8869 10.7289 14.9334 12.3822 14.9599 13.9289C14.9864 15.4756 17.7673 18.0356 24.5211 17.5822L20.3364 20.6756C20.3364 20.6756 16.549 21.0756 14.2183 20.1956C11.8876 19.3156 9.92764 18.0622 10.0336 15.8489C10.1395 13.6356 12.0995 11.5289 12.0995 11.5289C12.0995 11.5289 13.3531 10.57 15.0791 9.54222C16.5479 8.66778 18.2474 7.73333 20.9986 7.38333Z" fill="#FAFAFA"/>
<path d="M28.2556 5.1022L23.5147 7.63554L23.4087 5.20887C23.4087 5.20887 22.6142 3.15554 19.4624 3.15554C16.3106 3.15554 15.4631 3.15554 15.4631 3.15554L16.0193 2.72887C16.0193 2.72887 13.5032 2.4622 13.2648 2.72887C13.0264 2.99554 12.5497 4.3822 11.0135 5.36887C9.47739 6.35554 6.59047 9.6622 6.59047 9.6622C6.59047 9.6622 5.4516 12.0089 5.53105 15.5022C5.61051 18.9955 6.98775 21.6089 9.02713 23.1822C11.0665 24.7555 11.1195 25.1022 24.733 24.9689L20.7867 28.1155H10.5103C10.5103 28.1155 7.67637 28.1689 5.82239 26.9422C3.96841 25.7155 2.85602 24.9689 1.95551 22.9422C1.05501 20.9155 0.684211 20.0089 0.790153 16.8089C0.896095 13.6089 0.949065 12.4089 2.93548 10.3822C4.92189 8.35554 6.3521 7.4222 6.93478 6.72887C7.51746 6.03554 8.52391 5.0222 8.65634 4.27554C8.65634 4.27554 14.0329 0.48887 15.728 0.00887042H24.1768C24.1768 0.00887042 28.8383 -0.364463 28.2556 5.1022Z" fill="#FAFAFA"/>
<path d="M0.121399 30.2422L2.35611 28.5522C2.35611 28.5522 49.2453 27.7822 55.4826 28.7422L53.1387 30.4622C53.1387 30.4622 31.5265 29.8222 24.8125 29.8222C18.0984 29.8222 0.121399 30.2422 0.121399 30.2422Z" fill="#FAFAFA"/>
<path d="M26.6323 17.3955H26.0783L27.6806 13.0318H28.226L29.8283 17.3955H29.2743L27.9704 13.7222H27.9363L26.6323 17.3955ZM26.8368 15.6909H29.0698V16.1597H26.8368V15.6909ZM27.7232 12.5887L28.2431 11.6H28.8311L28.1664 12.5887H27.7232ZM30.508 17.3955V13.0318H31.9824C32.3248 13.0318 32.6046 13.0936 32.8219 13.2172C33.0407 13.3394 33.2026 13.5049 33.3077 13.7137C33.4128 13.9225 33.4654 14.1554 33.4654 14.4125C33.4654 14.6696 33.4128 14.9033 33.3077 15.1135C33.204 15.3237 33.0435 15.4914 32.8262 15.6164C32.6088 15.7399 32.3304 15.8017 31.9909 15.8017H30.9341V15.333H31.9739C32.2083 15.333 32.3965 15.2925 32.5385 15.2115C32.6806 15.1306 32.7836 15.0212 32.8475 14.8834C32.9128 14.7442 32.9455 14.5872 32.9455 14.4125C32.9455 14.2378 32.9128 14.0816 32.8475 13.9438C32.7836 13.806 32.6799 13.698 32.5364 13.6199C32.3929 13.5404 32.2026 13.5006 31.9654 13.5006H31.0364V17.3955H30.508ZM36.703 14.1227C36.6774 13.9068 36.5737 13.7392 36.3919 13.6199C36.2101 13.5006 35.987 13.4409 35.7228 13.4409C35.5297 13.4409 35.3606 13.4722 35.2157 13.5347C35.0723 13.5972 34.9601 13.6831 34.8791 13.7925C34.7995 13.9019 34.7598 14.0262 34.7598 14.1654C34.7598 14.2818 34.7875 14.382 34.8429 14.4658C34.8997 14.5482 34.9721 14.6171 35.0602 14.6725C35.1483 14.7264 35.2406 14.7712 35.3372 14.8067C35.4338 14.8408 35.5226 14.8685 35.6035 14.8898L36.0467 15.0091C36.1603 15.0389 36.2868 15.0801 36.426 15.1327C36.5666 15.1852 36.7008 15.257 36.8287 15.3479C36.9579 15.4374 37.0645 15.5524 37.1483 15.6931C37.2321 15.8337 37.274 16.0063 37.274 16.2108C37.274 16.4466 37.2122 16.6597 37.0886 16.85C36.9664 17.0404 36.7875 17.1916 36.5517 17.3039C36.3173 17.4161 36.0325 17.4722 35.6973 17.4722C35.3848 17.4722 35.1142 17.4218 34.8855 17.3209C34.6582 17.2201 34.4792 17.0794 34.3485 16.899C34.2193 16.7186 34.1461 16.5091 34.1291 16.2705H34.6745C34.6887 16.4352 34.7441 16.5716 34.8407 16.6796C34.9387 16.7861 35.0623 16.8656 35.2115 16.9182C35.362 16.9693 35.524 16.9949 35.6973 16.9949C35.899 16.9949 36.0801 16.9622 36.2406 16.8969C36.4011 16.8301 36.5282 16.7378 36.622 16.6199C36.7157 16.5006 36.7626 16.3614 36.7626 16.2023C36.7626 16.0574 36.7221 15.9395 36.6412 15.8486C36.5602 15.7577 36.4537 15.6838 36.3216 15.627C36.1895 15.5702 36.0467 15.5205 35.8933 15.4779L35.3564 15.3245C35.0155 15.2264 34.7456 15.0865 34.5467 14.9047C34.3478 14.7229 34.2484 14.485 34.2484 14.1909C34.2484 13.9466 34.3145 13.7335 34.4466 13.5517C34.5801 13.3685 34.7591 13.2264 34.9835 13.1256C35.2093 13.0233 35.4615 12.9722 35.7399 12.9722C36.0211 12.9722 36.2711 13.0226 36.4899 13.1235C36.7086 13.2229 36.8819 13.3593 37.0098 13.5326C37.139 13.7058 37.2072 13.9026 37.2143 14.1227H36.703ZM41.0064 13.0318H41.5348V15.921C41.5348 16.2193 41.4645 16.4857 41.3239 16.7201C41.1847 16.953 40.9879 17.137 40.7337 17.2719C40.4794 17.4054 40.1811 17.4722 39.8388 17.4722C39.4965 17.4722 39.1982 17.4054 38.9439 17.2719C38.6896 17.137 38.4922 16.953 38.3516 16.7201C38.2124 16.4857 38.1428 16.2193 38.1428 15.921V13.0318H38.6712V15.8784C38.6712 16.0915 38.718 16.2811 38.8118 16.4473C38.9055 16.6121 39.0391 16.7421 39.2124 16.8372C39.3871 16.931 39.5959 16.9779 39.8388 16.9779C40.0817 16.9779 40.2905 16.931 40.4652 16.8372C40.6399 16.7421 40.7734 16.6121 40.8658 16.4473C40.9595 16.2811 41.0064 16.0915 41.0064 15.8784V13.0318ZM42.59 17.3955V13.0318H43.1184V16.9267H45.1468V17.3955H42.59ZM46.4194 17.3955H45.8654L47.4677 13.0318H48.0131L49.6154 17.3955H49.0614L47.7575 13.7222H47.7234L46.4194 17.3955ZM46.6239 15.6909H48.8569V16.1597H46.6239V15.6909Z" fill="#FAFAFA"/>
<path d="M27.9145 23.4343C27.7043 23.4343 27.523 23.3879 27.3705 23.2951C27.219 23.2014 27.102 23.0707 27.0196 22.9031C26.9382 22.7345 26.8975 22.5385 26.8975 22.315C26.8975 22.0915 26.9382 21.8945 27.0196 21.7241C27.102 21.5527 27.2166 21.4192 27.3634 21.3235C27.5111 21.2269 27.6835 21.1786 27.8804 21.1786C27.9941 21.1786 28.1063 21.1976 28.2171 21.2354C28.3279 21.2733 28.4287 21.3349 28.5196 21.4201C28.6105 21.5044 28.683 21.6161 28.737 21.7553C28.7909 21.8945 28.8179 22.0659 28.8179 22.2695V22.4116H27.1361V22.1218H28.477C28.477 21.9987 28.4524 21.8889 28.4032 21.7923C28.3549 21.6957 28.2857 21.6194 28.1958 21.5636C28.1068 21.5077 28.0016 21.4798 27.8804 21.4798C27.7469 21.4798 27.6314 21.5129 27.5338 21.5792C27.4373 21.6445 27.3629 21.7298 27.3108 21.8349C27.2587 21.94 27.2327 22.0527 27.2327 22.1729V22.3661C27.2327 22.5309 27.2611 22.6706 27.3179 22.7852C27.3757 22.8988 27.4557 22.9854 27.558 23.0451C27.6603 23.1038 27.7791 23.1332 27.9145 23.1332C28.0026 23.1332 28.0821 23.1209 28.1532 23.0962C28.2251 23.0707 28.2872 23.0328 28.3392 22.9826C28.3913 22.9315 28.4316 22.868 28.46 22.7923L28.7838 22.8832C28.7498 22.993 28.6925 23.0896 28.612 23.1729C28.5315 23.2553 28.432 23.3197 28.3137 23.3661C28.1953 23.4116 28.0623 23.4343 27.9145 23.4343ZM29.6631 20.4798V23.3889H29.3279V20.4798H29.6631ZM31.1919 23.4343C30.9816 23.4343 30.8003 23.3879 30.6478 23.2951C30.4963 23.2014 30.3794 23.0707 30.297 22.9031C30.2155 22.7345 30.1748 22.5385 30.1748 22.315C30.1748 22.0915 30.2155 21.8945 30.297 21.7241C30.3794 21.5527 30.494 21.4192 30.6407 21.3235C30.7885 21.2269 30.9608 21.1786 31.1578 21.1786C31.2714 21.1786 31.3836 21.1976 31.4944 21.2354C31.6052 21.2733 31.7061 21.3349 31.797 21.4201C31.8879 21.5044 31.9603 21.6161 32.0143 21.7553C32.0683 21.8945 32.0953 22.0659 32.0953 22.2695V22.4116H30.4135V22.1218H31.7544C31.7544 21.9987 31.7297 21.8889 31.6805 21.7923C31.6322 21.6957 31.5631 21.6194 31.4731 21.5636C31.3841 21.5077 31.279 21.4798 31.1578 21.4798C31.0243 21.4798 30.9087 21.5129 30.8112 21.5792C30.7146 21.6445 30.6403 21.7298 30.5882 21.8349C30.5361 21.94 30.51 22.0527 30.51 22.1729V22.3661C30.51 22.5309 30.5385 22.6706 30.5953 22.7852C30.653 22.8988 30.7331 22.9854 30.8353 23.0451C30.9376 23.1038 31.0565 23.1332 31.1919 23.1332C31.2799 23.1332 31.3595 23.1209 31.4305 23.0962C31.5025 23.0707 31.5645 23.0328 31.6166 22.9826C31.6687 22.9315 31.7089 22.868 31.7373 22.7923L32.0612 22.8832C32.0271 22.993 31.9698 23.0896 31.8893 23.1729C31.8088 23.2553 31.7094 23.3197 31.591 23.3661C31.4726 23.4116 31.3396 23.4343 31.1919 23.4343ZM33.4916 23.4343C33.287 23.4343 33.1109 23.386 32.9632 23.2894C32.8154 23.1928 32.7018 23.0598 32.6223 22.8903C32.5427 22.7208 32.5029 22.5271 32.5029 22.3093C32.5029 22.0877 32.5437 21.8922 32.6251 21.7227C32.7075 21.5522 32.8221 21.4192 32.9689 21.3235C33.1166 21.2269 33.2889 21.1786 33.4859 21.1786C33.6393 21.1786 33.7776 21.207 33.9007 21.2639C34.0238 21.3207 34.1246 21.4002 34.2032 21.5025C34.2818 21.6048 34.3306 21.7241 34.3495 21.8604H34.0143C33.9887 21.761 33.9319 21.6729 33.8439 21.5962C33.7567 21.5186 33.6393 21.4798 33.4916 21.4798C33.3609 21.4798 33.2463 21.5139 33.1478 21.582C33.0503 21.6493 32.9741 21.7444 32.9191 21.8675C32.8652 21.9897 32.8382 22.1332 32.8382 22.2979C32.8382 22.4665 32.8647 22.6133 32.9177 22.7383C32.9717 22.8633 33.0475 22.9604 33.145 23.0295C33.2435 23.0986 33.359 23.1332 33.4916 23.1332C33.5787 23.1332 33.6578 23.118 33.7288 23.0877C33.7998 23.0574 33.86 23.0139 33.9092 22.957C33.9584 22.9002 33.9935 22.832 34.0143 22.7525H34.3495C34.3306 22.8813 34.2837 22.9973 34.2089 23.1005C34.135 23.2028 34.037 23.2842 33.9149 23.3448C33.7937 23.4045 33.6526 23.4343 33.4916 23.4343ZM35.7885 21.207V21.4911H34.6578V21.207H35.7885ZM34.9873 20.6843H35.3225V22.7639C35.3225 22.8586 35.3363 22.9296 35.3637 22.9769C35.3922 23.0233 35.4281 23.0546 35.4717 23.0707C35.5162 23.0858 35.5631 23.0934 35.6123 23.0934C35.6493 23.0934 35.6796 23.0915 35.7032 23.0877C35.7269 23.083 35.7458 23.0792 35.76 23.0764L35.8282 23.3775C35.8055 23.386 35.7738 23.3945 35.7331 23.4031C35.6923 23.4125 35.6407 23.4173 35.5782 23.4173C35.4835 23.4173 35.3907 23.3969 35.2998 23.3562C35.2099 23.3155 35.135 23.2534 35.0754 23.1701C35.0167 23.0868 34.9873 22.9817 34.9873 22.8548V20.6843ZM36.2927 23.3889V21.207H36.6166V21.5366H36.6393C36.6791 21.4286 36.7511 21.341 36.8552 21.2738C36.9594 21.2066 37.0768 21.1729 37.2075 21.1729C37.2321 21.1729 37.2629 21.1734 37.2998 21.1744C37.3368 21.1753 37.3647 21.1767 37.3836 21.1786V21.5195C37.3723 21.5167 37.3462 21.5124 37.3055 21.5068C37.2657 21.5001 37.2236 21.4968 37.1791 21.4968C37.073 21.4968 36.9783 21.5191 36.895 21.5636C36.8126 21.6071 36.7473 21.6677 36.699 21.7454C36.6516 21.8221 36.6279 21.9097 36.6279 22.0082V23.3889H36.2927ZM38.601 23.4343C38.404 23.4343 38.2312 23.3874 38.0825 23.2937C37.9348 23.1999 37.8192 23.0688 37.7359 22.9002C37.6535 22.7317 37.6123 22.5347 37.6123 22.3093C37.6123 22.082 37.6535 21.8836 37.7359 21.7141C37.8192 21.5446 37.9348 21.413 38.0825 21.3193C38.2312 21.2255 38.404 21.1786 38.601 21.1786C38.7979 21.1786 38.9703 21.2255 39.118 21.3193C39.2667 21.413 39.3822 21.5446 39.4646 21.7141C39.5479 21.8836 39.5896 22.082 39.5896 22.3093C39.5896 22.5347 39.5479 22.7317 39.4646 22.9002C39.3822 23.0688 39.2667 23.1999 39.118 23.2937C38.9703 23.3874 38.7979 23.4343 38.601 23.4343ZM38.601 23.1332C38.7506 23.1332 38.8737 23.0948 38.9703 23.0181C39.0669 22.9414 39.1384 22.8406 39.1848 22.7156C39.2312 22.5906 39.2544 22.4551 39.2544 22.3093C39.2544 22.1635 39.2312 22.0276 39.1848 21.9016C39.1384 21.7757 39.0669 21.6739 38.9703 21.5962C38.8737 21.5186 38.7506 21.4798 38.601 21.4798C38.4513 21.4798 38.3282 21.5186 38.2316 21.5962C38.135 21.6739 38.0636 21.7757 38.0172 21.9016C37.9707 22.0276 37.9475 22.1635 37.9475 22.3093C37.9475 22.4551 37.9707 22.5906 38.0172 22.7156C38.0636 22.8406 38.135 22.9414 38.2316 23.0181C38.3282 23.0948 38.4513 23.1332 38.601 23.1332ZM38.4475 20.9116L38.7941 20.2525H39.1862L38.743 20.9116H38.4475ZM40.4365 22.0764V23.3889H40.1013V21.207H40.4252V21.5479H40.4536C40.5047 21.4372 40.5824 21.3481 40.6865 21.2809C40.7907 21.2127 40.9252 21.1786 41.0899 21.1786C41.2377 21.1786 41.3669 21.2089 41.4777 21.2695C41.5885 21.3292 41.6747 21.4201 41.7363 21.5423C41.7978 21.6635 41.8286 21.8169 41.8286 22.0025V23.3889H41.4934V22.0252C41.4934 21.8538 41.4489 21.7203 41.3598 21.6247C41.2708 21.5281 41.1487 21.4798 40.9934 21.4798C40.8864 21.4798 40.7907 21.503 40.7064 21.5494C40.6231 21.5958 40.5573 21.6635 40.509 21.7525C40.4607 21.8415 40.4365 21.9495 40.4365 22.0764ZM42.4412 23.3889V21.207H42.7764V23.3889H42.4412ZM42.6116 20.8434C42.5463 20.8434 42.4899 20.8211 42.4426 20.7766C42.3962 20.7321 42.373 20.6786 42.373 20.6161C42.373 20.5536 42.3962 20.5001 42.4426 20.4556C42.4899 20.4111 42.5463 20.3889 42.6116 20.3889C42.677 20.3889 42.7328 20.4111 42.7792 20.4556C42.8266 20.5001 42.8502 20.5536 42.8502 20.6161C42.8502 20.6786 42.8266 20.7321 42.7792 20.7766C42.7328 20.8211 42.677 20.8434 42.6116 20.8434ZM44.2767 23.4343C44.0722 23.4343 43.8961 23.386 43.7483 23.2894C43.6006 23.1928 43.487 23.0598 43.4074 22.8903C43.3279 22.7208 43.2881 22.5271 43.2881 22.3093C43.2881 22.0877 43.3288 21.8922 43.4103 21.7227C43.4926 21.5522 43.6072 21.4192 43.754 21.3235C43.9017 21.2269 44.0741 21.1786 44.2711 21.1786C44.4245 21.1786 44.5627 21.207 44.6858 21.2639C44.8089 21.3207 44.9098 21.4002 44.9884 21.5025C45.067 21.6048 45.1158 21.7241 45.1347 21.8604H44.7995C44.7739 21.761 44.7171 21.6729 44.629 21.5962C44.5419 21.5186 44.4245 21.4798 44.2767 21.4798C44.1461 21.4798 44.0315 21.5139 43.933 21.582C43.8355 21.6493 43.7592 21.7444 43.7043 21.8675C43.6503 21.9897 43.6233 22.1332 43.6233 22.2979C43.6233 22.4665 43.6498 22.6133 43.7029 22.7383C43.7569 22.8633 43.8326 22.9604 43.9301 23.0295C44.0286 23.0986 44.1442 23.1332 44.2767 23.1332C44.3639 23.1332 44.4429 23.118 44.514 23.0877C44.585 23.0574 44.6451 23.0139 44.6944 22.957C44.7436 22.9002 44.7786 22.832 44.7995 22.7525H45.1347C45.1158 22.8813 45.0689 22.9973 44.9941 23.1005C44.9202 23.2028 44.8222 23.2842 44.7 23.3448C44.5788 23.4045 44.4377 23.4343 44.2767 23.4343ZM46.2668 23.44C46.1285 23.44 46.0031 23.4139 45.8904 23.3619C45.7777 23.3088 45.6882 23.2326 45.6219 23.1332C45.5556 23.0328 45.5225 22.9116 45.5225 22.7695C45.5225 22.6445 45.5471 22.5432 45.5963 22.4656C45.6456 22.387 45.7114 22.3254 45.7938 22.2809C45.8762 22.2364 45.9671 22.2032 46.0665 22.1815C46.1669 22.1587 46.2677 22.1407 46.3691 22.1275C46.5016 22.1104 46.6091 22.0977 46.6915 22.0891C46.7748 22.0797 46.8355 22.064 46.8733 22.0423C46.9122 22.0205 46.9316 21.9826 46.9316 21.9286V21.9173C46.9316 21.7771 46.8932 21.6682 46.8165 21.5906C46.7408 21.5129 46.6257 21.4741 46.4713 21.4741C46.3113 21.4741 46.1858 21.5091 46.0949 21.5792C46.004 21.6493 45.9401 21.7241 45.9032 21.8036L45.585 21.69C45.6418 21.5574 45.7176 21.4542 45.8123 21.3803C45.9079 21.3055 46.0121 21.2534 46.1248 21.2241C46.2384 21.1938 46.3501 21.1786 46.46 21.1786C46.5301 21.1786 46.6105 21.1872 46.7015 21.2042C46.7933 21.2203 46.8819 21.2539 46.9671 21.305C47.0533 21.3562 47.1248 21.4334 47.1816 21.5366C47.2384 21.6398 47.2668 21.7781 47.2668 21.9514V23.3889H46.9316V23.0934H46.9145C46.8918 23.1407 46.8539 23.1914 46.8009 23.2454C46.7479 23.2994 46.6773 23.3453 46.5892 23.3832C46.5012 23.4211 46.3937 23.44 46.2668 23.44ZM46.3179 23.1389C46.4505 23.1389 46.5623 23.1128 46.6532 23.0607C46.745 23.0086 46.8141 22.9414 46.8605 22.859C46.9079 22.7766 46.9316 22.69 46.9316 22.5991V22.2923C46.9174 22.3093 46.8861 22.3249 46.8378 22.3391C46.7905 22.3524 46.7355 22.3642 46.673 22.3747C46.6115 22.3841 46.5514 22.3926 46.4926 22.4002C46.4349 22.4068 46.388 22.4125 46.352 22.4173C46.2649 22.4286 46.1835 22.4471 46.1077 22.4727C46.0329 22.4973 45.9723 22.5347 45.9259 22.5849C45.8804 22.6341 45.8577 22.7014 45.8577 22.7866C45.8577 22.9031 45.9008 22.9911 45.987 23.0508C46.0741 23.1095 46.1844 23.1389 46.3179 23.1389Z" fill="#FAFAFA"/>
</g>
<defs>
<clipPath id="clip0_3_26">
<rect width="59.9322" height="32" fill="white"/>
</clipPath>
</defs>
</svg>